<svg xmlns="http://www.w3.org/2000/svg" xmlns:xlink="http://www.w3.org/1999/xlink" width="90" height="23" viewBox="0 0 90 23">
    <defs>
        <path id="a" d="M0 .108h12.492v12.156H0z"/>
    </defs>
    <g fill="none" fill-rule="evenodd">
        <path fill="#FEFEFE" d="M78.75 0C71.105 0 67.5 3.606 67.5 11.25c0 7.645 3.605 11.25 11.25 11.25C86.394 22.5 90 18.895 90 11.25 90 3.606 86.394 0 78.75 0"/>
        <path fill="#020303" d="M83.789 8.507a5.843 5.843 0 0 1-2.133 2.11 5.7 5.7 0 0 1-.92.423c-.626.22-1.417.215-1.968-.382-.15.664-.145 1.279.102 1.707.055.096.12.183.199.259.173.169.425.309.65.35.222.04.393.058.582.042a5.808 5.808 0 0 1-1.553 3.869 5.894 5.894 0 0 1-.877-1.166 5.842 5.842 0 0 1-.761-2.902 5.57 5.57 0 0 1 .095-1.008c.12-.652.52-1.335 1.313-1.513-.5-.462-1.034-.765-1.53-.766-.11 0-.218.015-.323.044-.232.064-.48.213-.628.388a2.06 2.06 0 0 0-.328.484 5.8 5.8 0 0 1-2.57-3.276c.46-.113.95-.181 1.448-.177a5.856 5.856 0 0 1 2.894.792c.293.17.57.367.826.586.504.432.895 1.119.653 1.895.65-.202 1.18-.514 1.428-.942.055-.096.097-.196.124-.302a1.36 1.36 0 0 0-.021-.74 2.094 2.094 0 0 0-.258-.527 5.809 5.809 0 0 1 4.127-.591 5.953 5.953 0 0 1-.571 1.343zm2.635-2.62c-2.501-1.198-5.364-.985-7.678.56a8.104 8.104 0 0 0-.436-.274l-.01-.006a7.725 7.725 0 0 0-3.867-1.042 7.774 7.774 0 0 0-3.361.772l-.077.038.006.086c.212 2.763 1.826 5.134 4.318 6.366-.012.175-.02.348-.02.518v.012a7.72 7.72 0 0 0 1.03 3.87 7.765 7.765 0 0 0 2.35 2.524l.07.049.072-.05c2.288-1.565 3.536-4.15 3.355-6.926.158-.077.313-.157.462-.243l.009-.005a7.719 7.719 0 0 0 2.837-2.828 7.78 7.78 0 0 0 1.012-3.297l.005-.086-.077-.037z"/>
        <g transform="translate(0 6.5)">
            <mask id="b" fill="#fff">
                <use xlink:href="#a"/>
            </mask>
            <path fill="#FEFEFE" d="M9.078 9.139c-.682.715-1.66 1.093-2.824 1.093-1.17 0-2.15-.38-2.835-1.097-.683-.715-1.043-1.737-1.043-2.956 0-1.215.359-2.233 1.038-2.946.683-.715 1.66-1.093 2.825-1.093 1.17 0 2.15.38 2.834 1.097.684.715 1.044 1.737 1.044 2.956 0 1.215-.36 2.234-1.04 2.946M6.256.108C2.299.108 0 2.467 0 6.194c0 3.728 2.281 6.07 6.237 6.07 3.957 0 6.255-2.36 6.255-6.086 0-3.728-2.28-6.07-6.238-6.07" mask="url(#b)"/>
        </g>
        <path fill="#FEFEFE" d="M20.576 18.562v-5.208c0-1.352-.7-2.158-1.873-2.158-1.186 0-1.924.827-1.924 2.158v5.208h-2.223v-9h2.223v1.276c.662-.755 1.51-1.444 2.965-1.444 1.93 0 3.055 1.276 3.055 3.341v5.827h-2.223zM30.056 18.247c-.422.262-1.039.466-1.895.466-1.56 0-2.619-.62-2.619-2.703v-4.687h-1.075v-1.76h1.076v-2.3h2.224v2.3h2.198v1.76h-2.198v4.268c0 .775.413 1.2 1.157 1.2.412 0 .9-.105 1.133-.26v1.716zM37.492 15.45c0 1.057-.949 1.825-2.257 1.825-1.002 0-1.676-.54-1.676-1.343v-.03c0-.918.778-1.487 2.031-1.487.61 0 1.232.108 1.705.296l.197.078v.661zM35.52 9.462c-1.455 0-2.407.258-3.35.66l.497 1.534c.644-.235 1.508-.48 2.531-.48 1.48 0 2.329.728 2.329 1.997v.177c-.703-.204-1.535-.325-2.539-.325-2.085 0-3.569.936-3.569 2.965v.033c0 1.78 1.357 2.707 3.008 2.707 1.36 0 2.319-.445 3.03-1v.832h2.076v-5.22c0-2.436-1.226-3.88-4.013-3.88zM41.83 18.562v-9h2.177v1.813c.581-1.242 1.325-2.048 3.012-1.98v1.966h-.046c-.816.01-1.479.236-1.974.675-.658.583-.992 1.526-.992 2.803v3.723H41.83zM51.096 9.61l.047-.048h-2.224v9h2.224v-9l-.047.047zm-2.244-1.367h2.358V6.305h-2.358v1.938zM59.996 16.156c-.468.497-1.147.76-1.965.76-.808 0-1.486-.268-1.96-.773-.473-.503-.722-1.219-.722-2.07 0-.86.245-1.577.71-2.07.465-.498 1.143-.76 1.958-.76.81 0 1.49.267 1.966.772.473.502.723 1.22.723 2.071 0 .861-.245 1.576-.71 2.07m-1.964-6.762c-3.056 0-4.874 1.814-4.874 4.698 0 2.875 1.81 4.672 4.857 4.672 3.064 0 4.882-1.814 4.882-4.689 0-2.884-1.81-4.68-4.865-4.68"/>
    </g>
</svg>
