<svg xmlns="http://www.w3.org/2000/svg" xmlns:xlink="http://www.w3.org/1999/xlink" width="90" height="24" viewBox="0 0 90 24">
    <defs>
        <path id="a" d="M0 .906h12.65v12.31H0z"/>
        <path id="c" d="M.215.215H23V23H.215z"/>
    </defs>
    <g fill="none" fill-rule="evenodd">
        <g transform="translate(0 6.785)">
            <mask id="b" fill="#fff">
                <use xlink:href="#a"/>
            </mask>
            <path fill="#231F20" d="M6.333 10.826c-2.271 0-3.595-1.472-3.595-3.772s1.309-3.757 3.58-3.757c2.27 0 3.595 1.472 3.595 3.772s-1.31 3.757-3.58 3.757m0-9.92C2.328.906 0 3.295 0 7.07s2.31 6.147 6.317 6.147 6.334-2.39 6.334-6.164c0-3.774-2.31-6.147-6.317-6.147" mask="url(#b)"/>
        </g>
        <path fill="#231F20" d="M20.226 19.798v-5.274c0-1.225-.578-1.853-1.564-1.853-.986 0-1.616.628-1.616 1.853v5.274h-2.584v-9.114h2.584v1.292c.596-.765 1.361-1.462 2.67-1.462 1.955 0 3.094 1.292 3.094 3.384v5.9h-2.584zM27.77 16.788c0 .595.27.884.883.884.505 0 .955-.12 1.35-.323v2.075c-.543.322-1.172.527-2.04.527-1.581 0-2.652-.63-2.652-2.738v-4.414h-1.088v-2.115h1.088v-2.33h2.46v2.33h2.226v2.115H27.77v3.989zM37.173 16.54c0 .934-.841 1.621-2.048 1.621-.834 0-1.435-.408-1.435-1.105v-.034c0-.816.703-1.258 1.809-1.258.629 0 1.23.113 1.674.292v.483zm-1.664-5.959c-1.547 0-2.534.29-3.537.731l.599 1.854c.833-.306 1.625-.517 2.61-.517 1.293 0 2.028.62 2.028 1.69v.13c-.643-.176-1.405-.28-2.323-.28-2.16 0-3.696.95-3.696 3.003v.034c0 1.802 1.41 2.741 3.129 2.741 1.266 0 2.162-.445 2.818-1.085v.915h2.435V14.51c0-2.466-1.241-3.928-4.063-3.928zM46.883 12.837c-1.717 0-2.724 1.014-2.724 3.19v3.77h-2.537v-9.114h2.537v1.837c.527-1.259 1.329-2.075 2.86-2.007v2.324h-.136zM51.058 10.731l.048-.048h-2.585v9.114h2.585v-9.114l-.048.048zm-2.605-1.05h2.721V7.383h-2.72V9.68zM57.805 17.798c-1.506 0-2.384-.997-2.384-2.548 0-1.543.841-2.533 2.369-2.533 1.514 0 2.392.998 2.392 2.548 0 1.544-.841 2.533-2.377 2.533m0-7.284c-3.093 0-4.935 1.836-4.935 4.757 0 2.91 1.833 4.73 4.918 4.73 3.103 0 4.944-1.836 4.944-4.747 0-2.921-1.832-4.74-4.927-4.74"/>
        <g transform="translate(67 .785)">
            <mask id="d" fill="#fff">
                <use xlink:href="#c"/>
            </mask>
            <path fill="#231F20" d="M11.608.215C3.867.215.215 3.866.215 11.607S3.867 23 11.608 23C19.348 23 23 19.348 23 11.607 23 3.867 19.349.215 11.608.215" mask="url(#d)"/>
        </g>
        <path fill="#FEFEFE" d="M83.854 9.608a6.003 6.003 0 0 1-3.173 2.653c-.656.237-1.478.248-2.04-.35-.116.715-.04 1.373.354 1.756.166.162.41.295.629.334.27.047.464.059.712.016a6.005 6.005 0 0 1-1.73 4.282 6.156 6.156 0 0 1-.93-1.212 6.01 6.01 0 0 1-.712-4.074c.123-.686.525-1.404 1.323-1.592-.56-.458-1.168-.72-1.697-.571-.223.063-.46.208-.603.378a1.892 1.892 0 0 0-.371.61 6.002 6.002 0 0 1-2.84-3.635 6.148 6.148 0 0 1 1.514-.2 6.005 6.005 0 0 1 3.885 1.42c.533.45.953 1.158.717 1.942.676-.256 1.209-.651 1.343-1.184a1.28 1.28 0 0 0-.026-.711 1.858 1.858 0 0 0-.346-.63 6.006 6.006 0 0 1 4.575-.643c-.134.479-.325.96-.584 1.41m-5.251-1.852a7.576 7.576 0 0 0-7.62-.585 7.624 7.624 0 0 0 4.323 6.304 7.564 7.564 0 0 0 .99 4.41 7.588 7.588 0 0 0 2.312 2.483 7.622 7.622 0 0 0 3.298-6.898 7.558 7.558 0 0 0 3.327-3.065 7.615 7.615 0 0 0 .996-3.243 7.624 7.624 0 0 0-7.626.594"/>
    </g>
</svg>
